<?xml version="1.0" encoding="utf-8"?><!-- Uploaded to: SVG Repo, www.svgrepo.com, Generator: SVG Repo Mixer Tools -->
<svg version="1.1" id="Uploaded to svgrepo.com" xmlns="http://www.w3.org/2000/svg" xmlns:xlink="http://www.w3.org/1999/xlink" 
	 width="800px" height="800px" viewBox="0 0 32 32" xml:space="preserve">
<style type="text/css">
	.puchipuchi_een{fill:#111918;}
</style>
<path class="puchipuchi_een" d="M28,2H4C2.9,2,2,2.9,2,4v24c0,1.1,0.9,2,2,2h24c1.1,0,2-0.9,2-2V4C30,2.9,29.1,2,28,2z
	 M24.414,14.414l-9,9C15.024,23.805,14.512,24,14,24s-1.024-0.195-1.414-0.586l-5-5c-0.781-0.781-0.781-2.047,0-2.828
	c0.78-0.781,2.048-0.781,2.828,0L14,19.171l7.586-7.585c0.78-0.781,2.048-0.781,2.828,0C25.195,12.367,25.195,13.633,24.414,14.414z
	"/>
</svg>