<svg width="67" height="64" viewBox="0 0 67 64" fill="none" xmlns="http://www.w3.org/2000/svg">
<rect width="67" height="64" rx="32" fill="#5865F2"/>
<path d="M45.7159 21.5105C49.6638 27.0943 51.6135 33.3928 50.8846 40.6438C50.8816 40.6745 50.865 40.7026 50.8388 40.7211C47.8491 42.8329 44.9525 44.1146 42.0966 44.9645C42.0743 44.971 42.0505 44.9706 42.0285 44.9635C42.0065 44.9563 41.9874 44.9427 41.9738 44.9246C41.314 44.0414 40.7145 43.1104 40.1893 42.1326C40.1591 42.0751 40.1866 42.0057 40.2487 41.983C41.2008 41.6379 42.1062 41.2243 42.977 40.7346C43.0456 40.6959 43.05 40.6013 42.9867 40.5559C42.8018 40.4239 42.6187 40.2852 42.4435 40.1465C42.4107 40.1209 42.3666 40.1158 42.3295 40.1331C36.6757 42.6446 30.4823 42.6446 24.7617 40.1331C24.7245 40.1171 24.6804 40.1225 24.6485 40.1478C24.4737 40.2865 24.2902 40.4239 24.1071 40.5559C24.0438 40.6013 24.049 40.6959 24.118 40.7346C24.9889 41.215 25.8943 41.6379 26.8451 41.9847C26.9067 42.0074 26.936 42.0751 26.9054 42.1326C26.3915 43.1116 25.792 44.0427 25.12 44.9258C25.0907 44.9616 25.0426 44.978 24.9972 44.9645C22.1548 44.1146 19.2582 42.8329 16.2686 40.7211C16.2437 40.7026 16.2257 40.6732 16.2231 40.6425C15.614 34.3705 16.8554 28.0199 21.3871 21.5092C21.398 21.492 21.4146 21.4785 21.4338 21.4705C23.6636 20.4861 26.0524 19.7618 28.5492 19.3482C28.5946 19.3415 28.6401 19.3617 28.6637 19.4003C28.9722 19.9258 29.3248 20.5996 29.5634 21.1502C32.1952 20.7635 34.868 20.7635 37.5549 21.1502C37.7934 20.6113 38.1338 19.9258 38.441 19.4003C38.4519 19.3811 38.4689 19.3658 38.4895 19.3564C38.51 19.3471 38.5331 19.3442 38.5555 19.3482C41.0536 19.7631 43.4424 20.4873 45.6704 21.4705C45.6901 21.4785 45.7063 21.492 45.7159 21.5105ZM30.9013 33.4357C30.9289 31.5815 29.5236 30.0473 27.7596 30.0473C26.0101 30.0473 24.6183 31.5681 24.6183 33.4357C24.6183 35.3029 26.0376 36.8237 27.7596 36.8237C29.5096 36.8237 30.9013 35.3029 30.9013 33.4357ZM42.5165 33.4357C42.544 31.5815 41.1388 30.0473 39.3752 30.0473C37.6252 30.0473 36.2335 31.5681 36.2335 33.4357C36.2335 35.3029 37.6527 36.8237 39.3752 36.8237C41.1388 36.8237 42.5165 35.3029 42.5165 33.4357Z" fill="white"/>
</svg>
