<svg width="67" height="64" viewBox="0 0 67 64" fill="none" xmlns="http://www.w3.org/2000/svg">
<rect width="67" height="64" rx="32" fill="url(#paint0_linear_748_378)"/>
<path d="M27.9243 32.082C27.9243 29.1339 30.4247 26.7435 33.51 26.7435C36.5954 26.7435 39.0972 29.1339 39.0972 32.082C39.0972 35.03 36.5954 37.4205 33.51 37.4205C30.4247 37.4205 27.9243 35.03 27.9243 32.082ZM24.904 32.082C24.904 36.6236 28.7569 40.3051 33.51 40.3051C38.2632 40.3051 42.1161 36.6236 42.1161 32.082C42.1161 27.5403 38.2632 23.8589 33.51 23.8589C28.7569 23.8589 24.904 27.5403 24.904 32.082ZM40.4456 23.5328C40.4455 23.9129 40.5633 24.2845 40.7841 24.6006C41.005 24.9167 41.319 25.1631 41.6864 25.3087C42.0539 25.4543 42.4582 25.4925 42.8484 25.4185C43.2386 25.3445 43.597 25.1616 43.8784 24.893C44.1598 24.6243 44.3515 24.282 44.4292 23.9092C44.507 23.5365 44.4673 23.1501 44.3153 22.7989C44.1632 22.4477 43.9055 22.1475 43.5749 21.9362C43.2442 21.7249 42.8554 21.612 42.4576 21.6119H42.4568C41.9236 21.6121 41.4123 21.8145 41.0353 22.1747C40.6582 22.5349 40.4461 23.0233 40.4456 23.5328ZM26.739 45.1172C25.105 45.0461 24.2168 44.786 23.6266 44.5663C22.8441 44.2752 22.2858 43.9285 21.6988 43.3684C21.1118 42.8083 20.7484 42.2753 20.4451 41.5277C20.215 40.964 19.9429 40.1151 19.8686 38.5538C19.7873 36.8657 19.7711 36.3587 19.7711 32.0821C19.7711 27.8055 19.7887 27.2999 19.8686 25.6104C19.943 24.0491 20.2172 23.2019 20.4451 22.6365C20.7498 21.8889 21.1126 21.3554 21.6988 20.7945C22.285 20.2336 22.8427 19.8864 23.6266 19.5966C24.2165 19.3768 25.105 19.1167 26.739 19.0458C28.5056 18.9681 29.0363 18.9526 33.51 18.9526C37.9838 18.9526 38.515 18.9694 40.2831 19.0458C41.9172 19.1169 42.8038 19.3788 43.3955 19.5966C44.178 19.8864 44.7363 20.2344 45.3233 20.7945C45.9103 21.3546 46.2724 21.8889 46.577 22.6365C46.8071 23.2002 47.0793 24.0491 47.1535 25.6104C47.2348 27.2999 47.251 27.8055 47.251 32.0821C47.251 36.3587 47.2348 36.8643 47.1535 38.5538C47.0791 40.1151 46.8056 40.9637 46.577 41.5277C46.2724 42.2753 45.9095 42.8088 45.3233 43.3684C44.7371 43.928 44.178 44.2752 43.3955 44.5663C42.8056 44.7861 41.9172 45.0462 40.2831 45.1172C38.5165 45.1948 37.9858 45.2103 33.51 45.2103C29.0343 45.2103 28.5051 45.1948 26.739 45.1172ZM26.6002 16.1647C24.816 16.2424 23.5968 16.5127 22.5321 16.9086C21.4294 17.3174 20.4959 17.8658 19.5631 18.7557C18.6303 19.6456 18.0578 20.5389 17.63 21.5925C17.2157 22.6105 16.9328 23.7748 16.8515 25.4796C16.7689 27.1871 16.75 27.733 16.75 32.082C16.75 36.4309 16.7689 36.9768 16.8515 38.6843C16.9328 40.3893 17.2157 41.5534 17.63 42.5714C18.0578 43.6244 18.6305 44.5187 19.5631 45.4082C20.4958 46.2977 21.4294 46.8454 22.5321 47.2554C23.5988 47.6513 24.816 47.9216 26.6002 47.9992C28.3882 48.0769 28.9586 48.0962 33.51 48.0962C38.0615 48.0962 38.6329 48.0781 40.4199 47.9992C42.2042 47.9216 43.4226 47.6513 44.488 47.2554C45.59 46.8454 46.5242 46.2981 47.457 45.4082C48.3898 44.5184 48.9611 43.6244 49.3901 42.5714C49.8044 41.5534 50.0887 40.3891 50.1686 38.6843C50.2499 36.9755 50.2688 36.4309 50.2688 32.082C50.2688 27.733 50.2499 27.1871 50.1686 25.4796C50.0873 23.7747 49.8044 22.6099 49.3901 21.5925C48.9611 20.5396 48.3883 19.647 47.457 18.7557C46.5256 17.8644 45.59 17.3174 44.4894 16.9086C43.4226 16.5127 42.2041 16.2411 40.4212 16.1647C38.6342 16.0871 38.0629 16.0677 33.5114 16.0677C28.9599 16.0677 28.3882 16.0858 26.6002 16.1647Z" fill="white"/>
<defs>
<linearGradient id="paint0_linear_748_378" x1="65.7123" y1="64" x2="1.77936" y2="-2.92976" gradientUnits="userSpaceOnUse">
<stop stop-color="#FBE18A"/>
<stop offset="0.21" stop-color="#FCBB45"/>
<stop offset="0.38" stop-color="#F75274"/>
<stop offset="0.52" stop-color="#D53692"/>
<stop offset="0.74" stop-color="#8F39CE"/>
<stop offset="1" stop-color="#5B4FE9"/>
</linearGradient>
</defs>
</svg>
