<svg width="68" height="65" viewBox="0 0 68 65" fill="none" xmlns="http://www.w3.org/2000/svg">
<rect width="67.3206" height="64.3063" rx="32.1531" fill="#00D95F"/>
<path d="M16.9102 46.8152L19.3137 38.2784C17.3753 34.9529 16.7595 31.0723 17.5792 27.3487C18.3989 23.6251 20.5992 20.3083 23.7763 18.0069C26.9534 15.7055 30.8942 14.5739 34.8756 14.8198C38.857 15.0657 42.6118 16.6725 45.4512 19.3454C48.2905 22.0183 50.0239 25.578 50.3332 29.3713C50.6425 33.1646 49.507 36.9371 47.1351 39.9964C44.7631 43.0557 41.3138 45.1968 37.4202 46.0266C33.5265 46.8564 29.4496 46.3194 25.9377 44.514L16.9102 46.8152ZM26.3729 41.3195L26.9312 41.6354C29.475 43.0732 32.4462 43.6682 35.3816 43.3277C38.317 42.9871 41.0518 41.7301 43.1599 39.7525C45.268 37.775 46.6309 35.1879 47.0362 32.3945C47.4415 29.6012 46.8665 26.7584 45.4008 24.3092C43.935 21.8601 41.6609 19.9421 38.9327 18.8541C36.2046 17.7662 33.1757 17.5695 30.318 18.2946C27.4604 19.0197 24.9345 20.6259 23.1341 22.8629C21.3336 25.0999 20.3597 27.8421 20.3641 30.662C20.3617 33.0003 21.0398 35.2932 22.3229 37.2857L22.673 37.8362L21.3293 42.6009L26.3729 41.3195Z" fill="white"/>
<path fill-rule="evenodd" clip-rule="evenodd" d="M39.9233 32.8541C39.596 32.6023 39.2128 32.4252 38.8028 32.336C38.3929 32.2469 37.967 32.2481 37.5576 32.3397C36.9425 32.5834 36.5451 33.5038 36.1477 33.9641C36.0639 34.0744 35.9407 34.1518 35.8013 34.1817C35.662 34.2116 35.5159 34.1919 35.3906 34.1265C33.1388 33.2854 31.2513 31.743 30.0347 29.7498C29.9309 29.6254 29.8818 29.4675 29.8977 29.3093C29.9136 29.151 29.9932 29.0049 30.1199 28.9015C30.5631 28.4831 30.8886 27.9647 31.0661 27.3945C31.1056 26.7655 30.9545 26.139 30.6309 25.5897C30.3807 24.8195 29.9046 24.1338 29.2588 23.6134C28.9257 23.4705 28.5563 23.4226 28.1953 23.4755C27.8343 23.5283 27.4971 23.6796 27.2243 23.9112C26.7506 24.3009 26.3747 24.787 26.1241 25.3336C25.8735 25.8802 25.7547 26.4734 25.7764 27.0696C25.7779 27.4044 25.8224 27.7378 25.9089 28.0623C26.1287 28.8419 26.4666 29.5867 26.912 30.2732C27.2333 30.7991 27.584 31.3081 27.9624 31.7983C29.1921 33.4082 30.7379 34.775 32.514 35.823C33.4052 36.3556 34.3577 36.7886 35.3528 37.1135C36.3864 37.5603 37.5277 37.7318 38.6553 37.6098C39.2978 37.517 39.9065 37.2751 40.428 36.9053C40.9494 36.5356 41.3675 36.0492 41.6455 35.4891C41.8089 35.1508 41.8585 34.7725 41.7875 34.4062C41.6172 33.6572 40.5668 33.2151 39.9233 32.8541Z" fill="white"/>
</svg>
